<svg version="1.1" id="Layer_1" xmlns="http://www.w3.org/2000/svg" xmlns:xlink="http://www.w3.org/1999/xlink" x="0px" y="0px"
	 viewBox="0 0 128 128" style="enable-background:new 0 0 128 128;" xml:space="preserve">
<style type="text/css">
	.st0{fill:#FF5C87;}
</style>
<g>
	<path class="st0" d="M120.6,98.1c2.4-3.1,3.1-6.1,3.1-8.5c0-7.6-6.7-14.4-19-19.1c-6-2.3-13-4-20.7-5.1L93.2,81l-7.3,4.3l-12.5-21
		C68.3,64,63,63.9,57.6,64.1l10,16.9l-7.3,4.3L48.1,64.9c-4.6,0.5-9,1.2-13.1,2.2l7.1,14.3l-7.6,3.8l-7.9-15.8
		c-1.2,0.4-2.3,0.8-3.4,1.2c-12.2,4.7-19,11.5-19,19.1c0,2.4,0.7,5.4,3.1,8.5L120.6,98.1z"/>
	<path class="st0" d="M29.7,51.2h8.5c0-1,0.3-1.3,1.6-2.7c1.6-1.6,4.1-4.1,4.1-8.7s-2.5-7.1-4.1-8.7c-1.3-1.3-1.6-1.7-1.6-2.7
		s0.3-1.3,1.6-2.7c1.6-1.6,4.1-4.1,4.1-8.7h-8.5c0,1-0.3,1.3-1.6,2.7c-1.6,1.6-4.1,4.1-4.1,8.7s2.5,7.1,4.1,8.7
		c1.3,1.3,1.6,1.7,1.6,2.7s-0.3,1.3-1.6,2.7C32.2,44.1,29.7,46.6,29.7,51.2z"/>
	<path class="st0" d="M82.4,51.2h8.5c0-1,0.3-1.3,1.6-2.7c1.6-1.6,4.1-4.1,4.1-8.7s-2.5-7.1-4.1-8.7c-1.3-1.3-1.6-1.7-1.6-2.7
		s0.3-1.3,1.6-2.7c1.6-1.6,4.1-4.1,4.1-8.7h-8.5c0,1-0.3,1.3-1.6,2.7c-1.6,1.6-4.1,4.1-4.1,8.7s2.5,7.1,4.1,8.7
		c1.3,1.3,1.6,1.7,1.6,2.7s-0.3,1.3-1.6,2.7C84.8,44.1,82.4,46.6,82.4,51.2z"/>
	<path class="st0" d="M56.8,34.1h8.5c0-1,0.3-1.3,1.6-2.7c1.6-1.6,4.1-4.1,4.1-8.7s-2.5-7.1-4.1-8.7c-1.3-1.3-1.6-1.7-1.6-2.7
		s0.3-1.3,1.6-2.7C68.5,7.1,71,4.6,71,0h-8.5c0,1-0.3,1.3-1.6,2.7c-1.6,1.6-4.1,4.1-4.1,8.7s2.5,7.1,4.1,8.7
		c1.3,1.3,1.6,1.7,1.6,2.7s-0.3,1.3-1.6,2.7C59.2,27.1,56.8,29.5,56.8,34.1L56.8,34.1z"/>
	<path class="st0" d="M2.4,106.7v8.5H2.1c3.6,7.6,11.3,12.8,20.3,12.8h83.1c8.9,0,16.7-5.2,20.3-12.8h0.2v-8.5
		C122.2,106.7,8.7,106.7,2.4,106.7z"/>
</g>
</svg>
